HIERARCHY
ROOT Hips
{
	OFFSET 0.000000 0.000000 0.000000
	CHANNELS 6 Xposition Yposition Zposition Zrotation Yrotation Xrotation 
	JOINT LHipJoint
	{
		OFFSET 0.000000 0.000000 0.000000
		CHANNELS 3 Zrotation Yrotation Xrotation
		JOINT LeftUpLeg
		{
			OFFSET 1.363060 -1.794630 0.839290
			CHANNELS 3 Zrotation Yrotation Xrotation
			JOINT LeftLeg
			{
				OFFSET 2.448110 -6.726130 0.000000
				CHANNELS 3 Zrotation Yrotation Xrotation
				JOINT LeftFoot
				{
					OFFSET 2.562200 -7.039590 0.000000
					CHANNELS 3 Zrotation Yrotation Xrotation
					JOINT LeftToeBase
					{
						OFFSET 0.157640 -0.433110 2.322550
						CHANNELS 3 Zrotation Yrotation Xrotation
						End Site
						{
							OFFSET 0.000000 0.000000 0.000000
						}
					}
				}
			}
		}
	}
	JOINT RHipJoint
	{
		OFFSET 0.000000 0.000000 0.000000
		CHANNELS 3 Zrotation Yrotation Xrotation
		JOINT RightUpLeg
		{
			OFFSET -1.305520 -1.794630 0.839290
			CHANNELS 3 Zrotation Yrotation Xrotation
			JOINT RightLeg
			{
				OFFSET -2.542530 -6.985550 0.000000
				CHANNELS 3 Zrotation Yrotation Xrotation
				JOINT RightFoot
				{
					OFFSET -2.568260 -7.056230 0.000000
					CHANNELS 3 Zrotation Yrotation Xrotation
					JOINT RightToeBase
					{
						OFFSET -0.164730 -0.452590 2.363150
						CHANNELS 3 Zrotation Yrotation Xrotation
						End Site
						{
							OFFSET 0.000000 0.000000 0.000000
						}
					}
				}
			}
		}
	}
	JOINT LowerBack
	{
		OFFSET 0.000000 0.000000 0.000000
		CHANNELS 3 Zrotation Yrotation Xrotation
		JOINT Spine
		{
			OFFSET 0.028270 2.035590 -0.193380
			CHANNELS 3 Zrotation Yrotation Xrotation
			JOINT Spine1
			{
				OFFSET 0.056720 2.048850 -0.042750
				CHANNELS 3 Zrotation Yrotation Xrotation
				JOINT Neck
				{
					OFFSET 0.000000 0.000000 0.000000
					CHANNELS 3 Zrotation Yrotation Xrotation
					JOINT Neck1
					{
						OFFSET -0.054170 1.746240 0.172020
						CHANNELS 3 Zrotation Yrotation Xrotation
						JOINT Head
						{
							OFFSET 0.104070 1.761360 -0.123970
							CHANNELS 3 Zrotation Yrotation Xrotation
							End Site
							{
								OFFSET 0.000000 0.000000 0.000000
							}
						}
					}
				}
				JOINT LeftShoulder
				{
					OFFSET 0.000000 0.000000 0.000000
					CHANNELS 3 Zrotation Yrotation Xrotation
					JOINT LeftArm
					{
						OFFSET 3.362410 1.200890 -0.311210
						CHANNELS 3 Zrotation Yrotation Xrotation
						JOINT LeftForeArm
						{
							OFFSET 4.983000 -0.000000 -0.000000
							CHANNELS 3 Zrotation Yrotation Xrotation
							JOINT LeftHand
							{
								OFFSET 3.483560 -0.000000 -0.000000
								CHANNELS 3 Zrotation Yrotation Xrotation
								JOINT LeftFingerBase
								{
									OFFSET 0.000000 0.000000 0.000000
									CHANNELS 3 Zrotation Yrotation Xrotation
									JOINT LeftHandIndex1
									{
										OFFSET 0.715260 -0.000000 -0.000000
										CHANNELS 3 Zrotation Yrotation Xrotation
										End Site
										{
											OFFSET 0.000000 0.000000 0.000000
										}
									}
								}
								JOINT LThumb
								{
									OFFSET 0.000000 0.000000 0.000000
									CHANNELS 3 Zrotation Yrotation Xrotation
									End Site
									{
										OFFSET 0.000000 0.000000 0.000000
									}
								}
							}
						}
					}
				}
				JOINT RightShoulder
				{
					OFFSET 0.000000 0.000000 0.000000
					CHANNELS 3 Zrotation Yrotation Xrotation
					JOINT RightArm
					{
						OFFSET -3.136600 1.374050 -0.404650
						CHANNELS 3 Zrotation Yrotation Xrotation
						JOINT RightForeArm
						{
							OFFSET -5.241900 -0.000000 -0.000000
							CHANNELS 3 Zrotation Yrotation Xrotation
							JOINT RightHand
							{
								OFFSET -3.444170 -0.000000 -0.000000
								CHANNELS 3 Zrotation Yrotation Xrotation
								JOINT RightFingerBase
								{
									OFFSET 0.000000 0.000000 0.000000
									CHANNELS 3 Zrotation Yrotation Xrotation
									JOINT RightHandIndex1
									{
										OFFSET -0.622530 -0.000000 -0.000000
										CHANNELS 3 Zrotation Yrotation Xrotation
										End Site
										{
											OFFSET 0.000000 0.000000 0.000000
										}
									}
								}
								JOINT RThumb
								{
									OFFSET 0.000000 0.000000 0.000000
									CHANNELS 3 Zrotation Yrotation Xrotation
									End Site
									{
										OFFSET 0.000000 0.000000 0.000000
									}
								}
							}
						}
					}
				}
			}
		}
	}
}
MOTION
Frames: 5
Frame Time: 0.008333
0.277806 18.498766 9.743342 -12.607897 0.017928 11.783074 5.164039 6.036390 2.991101 -9.406596 -46.799239 13.949088 -3.688514 -2.388652 -2.306914 -15.025909 44.929317 -32.350842 0.478600 4.436500 12.308100 -0.612259 -4.185961 3.382066 27.748108 21.306496 -7.282278 3.080405 -2.506176 8.144236 5.626734 -18.731117 1.742508 -0.000200 -0.086500 0.237700 -1.263055 1.326263 -1.408913 13.449169 -0.073353 23.200711 -5.408681 -0.312305 -23.798918 -5.939534 -6.167780 -37.012225 14.415266 -9.075064 28.307954 2.237000 -2.175300 10.352200 -5.942958 -7.952360 -0.663208 -64.740094 -52.392930 54.857185 30.367615 -30.073372 -12.081894 -3.554960 -0.037181 -29.542715 51.599677 -13.579178 -20.438600 -7.125000 0.000000 0.000000 17.110900 5.568700 -16.122800 8.099686 9.805922 3.452776 69.612637 51.748630 70.278402 -55.181310 47.241238 -30.776178 0.220301 1.607885 33.312011 10.742017 -47.176100 -8.615300 7.125000 0.000000 0.000000 69.501000 -65.866500 -43.229400 
0.273907 18.507934 9.758202 -11.881957 -0.043069 12.047909 5.064578 5.965709 2.912233 -10.188209 -47.154356 14.043826 -3.710061 -2.378900 -2.268564 -14.964789 45.010641 -32.803930 0.495100 4.511400 12.520000 -0.609833 -4.188454 3.307408 26.791604 21.677020 -7.446573 3.093805 -2.511831 8.099544 5.790591 -19.123908 1.603379 -0.000700 -0.176000 0.483400 -2.113454 1.250676 -1.506521 12.935062 -0.082532 22.604878 -4.756579 -0.162449 -23.751650 -5.854774 -6.098295 -37.028015 14.276310 -9.068059 28.796040 2.218400 -2.165900 10.444800 -6.022694 -7.913780 -0.605336 -64.713783 -51.971777 54.556492 30.330557 -30.129594 -12.056866 -3.535905 -0.054330 -29.545438 51.337481 -13.556103 -20.180700 -7.125000 0.000000 0.000000 16.971400 5.781000 -15.906600 8.281417 9.846296 3.408177 68.852156 51.007566 69.721724 -56.962691 47.841069 -32.380289 0.149879 1.594788 33.448208 10.517234 -46.848584 -8.434600 7.125000 0.000000 0.000000 68.621000 -65.752200 -42.314500 
0.275066 18.512782 9.769900 -11.574522 0.034962 12.098327 5.061529 5.933789 2.879442 -10.547973 -47.229449 14.056609 -3.716971 -2.376639 -2.233857 -14.901322 44.928610 -32.807708 0.504700 4.554200 12.641400 -0.568817 -4.202387 3.300196 26.339830 21.807985 -7.480932 3.100821 -2.512121 8.071681 5.896467 -19.385185 1.512606 -0.000600 -0.157500 0.432600 -2.682671 1.150008 -1.651109 13.088275 -0.256595 22.468012 -4.492221 -0.147204 -23.712180 -5.907737 -6.047577 -36.893722 14.275718 -9.000742 28.897812 2.246200 -2.135400 10.450400 -6.063487 -7.903702 -0.605202 -64.563485 -51.695823 54.173400 30.321239 -30.161886 -12.063554 -3.544896 -0.056846 -29.512940 51.565346 -13.630693 -20.430500 -7.125000 0.000000 0.000000 17.088300 5.565500 -16.100400 8.288166 9.906177 3.341690 68.118099 50.589864 69.273757 -57.944510 48.116916 -33.252222 0.100519 1.592947 33.370781 10.294598 -46.072882 -8.190700 7.125000 0.000000 0.000000 66.939900 -65.445300 -40.474800 
0.285078 18.511939 9.781493 -11.618806 0.156030 11.968257 5.088363 5.951749 2.889617 -10.660752 -47.196534 14.211292 -3.715192 -2.386060 -2.250675 -14.942241 44.933853 -32.599525 0.488600 4.482000 12.436700 -0.552398 -4.213253 3.330132 26.369322 21.589010 -7.429194 3.098343 -2.514721 8.097936 5.889890 -19.360848 1.537343 -0.000100 -0.059300 0.163000 -2.641088 1.057274 -1.768840 13.252551 -0.408449 22.629537 -4.545063 -0.222501 -23.722857 -5.736332 -5.996894 -36.861239 14.010098 -8.917534 29.058111 2.176400 -2.108300 10.486000 -6.066368 -7.916292 -0.632823 -64.338308 -51.488736 53.899495 30.349941 -30.213921 -12.099476 -3.561812 -0.067600 -29.601819 51.906827 -13.661569 -20.725000 -7.125000 0.000000 0.000000 17.283600 5.343900 -16.379400 8.237681 9.966004 3.261159 67.427955 50.449592 68.933580 -57.734252 47.993089 -33.031268 0.078440 1.614304 32.701737 10.145947 -44.789078 -7.926000 7.125000 0.000000 0.000000 64.502800 -64.877600 -37.710900 
0.297514 18.510042 9.792032 -11.615229 0.139191 11.842365 5.086869 5.975680 2.907330 -10.965849 -47.299102 14.582884 -3.725602 -2.396816 -2.265111 -14.946252 44.998655 -32.764995 0.485600 4.468400 12.398300 -0.559912 -4.219442 3.350063 26.353854 21.381700 -7.403846 3.088447 -2.540914 8.193006 5.848219 -19.232266 1.591085 -0.000000 0.029000 -0.079800 -2.498771 1.000047 -1.864300 13.171228 -0.469664 22.774135 -4.549727 -0.261342 -23.753956 -5.350335 -5.927105 -36.975270 13.400467 -8.804678 29.439194 2.005500 -2.087000 10.582000 -6.076138 -7.927763 -0.650129 -64.114337 -51.278985 53.680878 30.367495 -30.258278 -12.119494 -3.567273 -0.080138 -29.764022 52.004855 -13.683541 -20.824900 -7.125000 0.000000 0.000000 17.337000 5.262200 -16.463300 8.214185 10.032533 3.186722 66.708979 50.410963 68.730781 -56.546111 47.552283 -31.921953 0.085598 1.661370 31.635353 10.553456 -43.426062 -8.041000 7.125000 0.000000 0.000000 62.543300 -64.090900 -35.111800 
